<svg width="20" height="21" viewBox="0 0 20 21" fill="none" xmlns="http://www.w3.org/2000/svg">
<path d="M2 8.39624C2 11.9644 4.93142 14.8676 8.5343 14.8676C9.95907 14.8676 11.261 14.4135 12.3337 13.6512L16.3624 17.6491C16.5507 17.8357 16.7964 17.9249 17.0584 17.9249C17.6151 17.9249 18 17.5113 18 16.9679C18 16.7084 17.9017 16.4732 17.7298 16.303L13.7257 12.3131C14.5691 11.2265 15.0686 9.87216 15.0686 8.39624C15.0686 4.82807 12.1371 1.92488 8.5343 1.92488C4.93142 1.92488 2 4.82807 2 8.39624ZM3.40021 8.39624C3.40021 5.59036 5.70113 3.3116 8.5343 3.3116C11.3675 3.3116 13.6684 5.59036 13.6684 8.39624C13.6684 11.2021 11.3675 13.4809 8.5343 13.4809C5.70113 13.4809 3.40021 11.2021 3.40021 8.39624Z" fill="#A4A4A8"/>
</svg>
